<?xml version="1.0" encoding="UTF-8"?><svg id="Layer_2" xmlns="http://www.w3.org/2000/svg" viewBox="0 0 416.79 425.11"><defs><style>.cls-1{fill:#c9352b;}.cls-1,.cls-2{stroke:#000;stroke-miterlimit:10;stroke-width:12px;}.cls-2{fill:#4d4d4d;}</style></defs><g id="Layer_1-2"><path class="cls-2" d="M379.9,212.56c0-7.84-.54-15.55-1.56-23.11l31.72-21.73c-2.87-12.97-6.96-25.48-12.15-37.41l-38.42,1.06c-7.37-13.68-16.54-26.25-27.2-37.39l12.88-36.19c-9.82-8.68-20.47-16.45-31.82-23.16l-30.43,23.42c-13.74-6.64-28.51-11.5-44-14.29l-10.85-36.83c-6.48-.61-13.04-.94-19.68-.94s-13.2,.33-19.68,.94l-10.85,36.83c-15.49,2.78-30.25,7.64-44,14.29l-30.43-23.42c-11.35,6.71-22,14.47-31.82,23.16l12.88,36.19c-10.66,11.13-19.83,23.7-27.2,37.39l-38.42-1.06c-5.18,11.93-9.27,24.44-12.15,37.41l31.72,21.73c-1.02,7.56-1.56,15.27-1.56,23.11s.54,15.55,1.56,23.11l-31.72,21.73c2.87,12.97,6.96,25.48,12.15,37.41l38.42-1.06c7.37,13.68,16.54,26.25,27.2,37.39l-12.88,36.19c9.82,8.68,20.47,16.45,31.82,23.16l30.43-23.42c13.74,6.64,28.51,11.5,44,14.29l10.85,36.83c6.48,.61,13.04,.94,19.68,.94s13.2-.33,19.68-.94l10.85-36.83c15.49-2.78,30.25-7.64,44-14.29l30.43,23.42c11.35-6.71,22-14.47,31.82-23.16l-12.88-36.19c10.66-11.13,19.83-23.7,27.2-37.39l38.42,1.06c5.18-11.93,9.27-24.44,12.15-37.41l-31.72-21.73c1.02-7.56,1.56-15.27,1.56-23.11Zm-171.5,97c-53.57,0-97-43.43-97-97s43.43-97,97-97,97,43.43,97,97-43.43,97-97,97Z"/><polygon class="cls-1" points="208.86 66.97 251.4 153.17 346.52 166.99 277.69 234.09 293.94 328.83 208.86 284.1 123.78 328.83 140.02 234.09 71.19 166.99 166.32 153.17 208.86 66.97"/><g><path d="M189.59,228.71h-.01s-28.3-18.16-28.3-18.16c-1.73-1.11-1.73-3.82,0-4.93l27.01-17.34c.81-.52,1.3-1.45,1.3-2.47v-4.72c0-2.23-2.25-3.61-4.02-2.47l-41.76,26.81c-1.73,1.11-1.73,3.82,0,4.93l41.76,26.81c1.77,1.14,4.02-.24,4.02-2.47v-6Z"/><path d="M228.13,228.71h.01s28.3-18.16,28.3-18.16c1.73-1.11,1.73-3.82,0-4.93l-27.01-17.34c-.81-.52-1.3-1.45-1.3-2.47v-4.72c0-2.23,2.25-3.61,4.02-2.47l41.76,26.81c1.73,1.11,1.73,3.82,0,4.93l-41.76,26.81c-1.77,1.14-4.02-.24-4.02-2.47v-6Z"/><path d="M224.2,173.86l-20.84,71.41c-.6,2.06-2.95,3.1-5.24,2.32l-1.54-.52c-2.29-.78-3.66-3.08-3.06-5.14l20.84-71.41c.6-2.06,2.95-3.1,5.24-2.32l1.54,.52c2.29,.78,3.66,3.08,3.06,5.14Z"/></g></g></svg>