<?xml version="1.0" encoding="UTF-8"?><svg id="Layer_2" xmlns="http://www.w3.org/2000/svg" viewBox="0 0 251.43 214.54"><defs><style>.cls-1{stroke-width:3px;}.cls-1,.cls-2{stroke:#000;stroke-miterlimit:10;}.cls-3{fill:#c1272d;}.cls-2{fill:#ff931e;stroke-width:4px;}</style></defs><g id="Layer_4"><path class="cls-2" d="M84.83,22.08c-3.46,3.47-7.66,4.91-11.13,1.44s-2.06-7.66,1.41-11.14c3.46-3.47,17.95-11.97,19.79-10.13,1.84,1.83-6.6,16.35-10.07,19.83Z"/><path class="cls-2" d="M75.61,24.24c-2.42,4.27-6.08,6.76-10.35,4.34s-4.01-6.84-1.6-11.11S77.8,1.17,80.06,2.45s-2.03,17.52-4.45,21.79Z"/><path class="cls-2" d="M78.23,34.17c-4.12,2.67-8.52,3.19-11.19-.93-2.67-4.12-.4-7.93,3.72-10.6,4.12-2.67,20.07-7.93,21.48-5.75s-9.89,14.6-14.01,17.27Z"/><path class="cls-2" d="M69.87,31.11c-1.24,4.75-4.15,8.1-8.89,6.86s-5.64-5.59-4.4-10.33,9.48-19.38,12-18.72,2.53,17.45,1.29,22.2Z"/><path class="cls-2" d="M75.83,42.04c-4.23,2.48-8.66,2.79-11.14-1.44s-.04-7.94,4.2-10.41c4.23-2.48,20.41-7,21.72-4.76s-10.55,14.13-14.78,16.61Z"/><path class="cls-2" d="M64.99,42.19c0,4.91-1.96,8.88-6.87,8.88s-6.87-3.98-6.87-8.88,4.27-21.15,6.87-21.15,6.87,16.24,6.87,21.15Z"/><path class="cls-2" d="M71.52,54.25c-3.47,3.47-7.67,4.89-11.14,1.43s-2.04-7.67,1.43-11.14c3.47-3.47,17.97-11.94,19.81-10.1s-6.63,16.34-10.1,19.81Z"/><path class="cls-2" d="M166.13,22.26c3.46,3.47,7.66,4.91,11.13,1.44s2.06-7.66-1.41-11.14c-3.46-3.47-17.95-11.97-19.79-10.13-1.84,1.83,6.6,16.35,10.07,19.83Z"/><path class="cls-2" d="M175.35,24.41c2.42,4.27,6.08,6.76,10.35,4.34s4.01-6.84,1.6-11.11-14.14-16.3-16.4-15.02,2.03,17.52,4.45,21.79Z"/><path class="cls-2" d="M172.73,34.35c4.12,2.67,8.52,3.19,11.19-.93s.4-7.93-3.72-10.6c-4.12-2.67-20.07-7.93-21.48-5.75s9.89,14.6,14.01,17.27Z"/><path class="cls-2" d="M181.09,31.29c1.24,4.75,4.15,8.1,8.89,6.86s5.64-5.59,4.4-10.33-9.48-19.38-12-18.72-2.53,17.45-1.29,22.2Z"/><path class="cls-2" d="M175.13,42.22c4.23,2.48,8.66,2.79,11.14-1.44s.04-7.94-4.2-10.41c-4.23-2.48-20.41-7-21.72-4.76s10.55,14.13,14.78,16.61Z"/><path class="cls-2" d="M185.97,42.36c0,4.91,1.96,8.88,6.87,8.88s6.87-3.98,6.87-8.88-4.27-21.15-6.87-21.15-6.87,16.24-6.87,21.15Z"/><path class="cls-2" d="M178.44,54.43c3.47,3.47,7.67,4.89,11.14,1.43s2.04-7.67-1.43-11.14-17.97-11.94-19.81-10.1,6.63,16.34,10.1,19.81Z"/><g><path class="cls-3" d="M80.62,210.45c-2.96-1.1-5.88-2.3-8.73-3.6l2.15-42.03-1.54-1.11c-8.28-5.97-15.46-13.22-21.35-21.54l-1.11-1.57-42.35,2.16c-1.29-2.82-2.49-5.71-3.58-8.65l31.64-28.56-.3-1.88c-.77-4.82-1.16-9.74-1.16-14.61s.42-10.18,1.26-15.2l.31-1.89L4.13,43.35c1.1-2.95,2.31-5.85,3.6-8.67l37.5,1.92,26.13,26.13c-3.99,8.16-6.08,17.21-6.08,26.34,0,33.08,26.92,60,60,60s60-26.92,60-60c0-8.89-2-17.73-5.8-25.74l26.71-26.72,37.4-1.91c1.34,2.93,2.59,5.95,3.73,9.01l-30.71,27.73,.33,1.9c.89,5.18,1.34,10.47,1.34,15.72s-.42,10.14-1.25,15.14l-.31,1.89,30.63,27.66c-1.13,3.05-2.37,6.06-3.71,8.99l-41.14-2.1-1.11,1.57c-6.05,8.53-13.44,15.92-21.97,21.97l-1.57,1.11,2.11,41.32c-2.88,1.33-5.84,2.56-8.86,3.69l-27.8-30.79-1.89,.31c-5,.83-10.09,1.25-15.14,1.25s-10.54-.45-15.72-1.34l-1.9-.33-28.03,31.05Z"/><path d="M9.94,38.3l33.76,1.72,23.45,23.45c-3.53,8.02-5.38,16.78-5.38,25.6,0,35.01,28.49,63.5,63.5,63.5s63.5-28.49,63.5-63.5c0-8.58-1.76-17.11-5.11-24.97l24.05-24.05,33.66-1.72c.63,1.45,1.24,2.92,1.82,4.4l-27.5,24.83-2.86,2.58,.65,3.8c.86,4.98,1.29,10.07,1.29,15.13s-.4,9.76-1.2,14.57l-.62,3.77,2.84,2.56,27.44,24.77c-.58,1.47-1.18,2.93-1.8,4.38l-36.83-1.88-3.84-.2-2.23,3.14c-5.82,8.21-12.93,15.32-21.14,21.14l-3.14,2.23,.2,3.84,1.89,37.01c-1.4,.61-2.82,1.2-4.25,1.77l-24.9-27.58-2.56-2.84-3.77,.62c-4.81,.8-9.71,1.2-14.57,1.2s-10.15-.43-15.13-1.29l-3.8-.65-2.58,2.86-25.14,27.84c-1.39-.54-2.76-1.11-4.12-1.7l1.93-37.72,.19-3.8-3.09-2.23c-7.96-5.75-14.87-12.72-20.54-20.72l-2.22-3.14-3.84,.2-38.03,1.94c-.58-1.33-1.14-2.68-1.67-4.04l28.44-25.68,2.82-2.55-.6-3.75c-.74-4.64-1.12-9.37-1.12-14.06s.41-9.8,1.21-14.62l.63-3.78-2.84-2.57L8.25,42.37c.54-1.37,1.1-2.73,1.69-4.07m-4.38-7.23C3.48,35.38,1.64,39.82,.03,44.37l32.04,28.93c-.85,5.13-1.3,10.4-1.3,15.77s.42,10.23,1.2,15.17L0,133.1c1.6,4.54,3.44,8.98,5.5,13.28l42.78-2.18c6.1,8.62,13.6,16.17,22.16,22.35l-2.17,42.48c4.33,2.07,8.8,3.91,13.37,5.51l28.32-31.36c5.3,.91,10.75,1.39,16.31,1.39s10.6-.45,15.71-1.29l28.09,31.12c4.62-1.63,9.12-3.51,13.49-5.62l-2.13-41.74c8.83-6.26,16.54-13.97,22.8-22.8l41.57,2.12c2.12-4.41,3.99-8.96,5.62-13.63l-30.95-27.95c.85-5.11,1.29-10.36,1.29-15.71s-.48-11.01-1.39-16.31l31.02-28.01c-1.64-4.67-3.52-9.23-5.65-13.65l-41.09,2.1-29.45,29.45c4.18,7.89,6.56,16.88,6.56,26.43,0,31.2-25.3,56.5-56.5,56.5s-56.5-25.3-56.5-56.5c0-9.78,2.49-18.99,6.86-27.01l-28.89-28.89L5.56,31.07h0Z"/></g></g><g id="Layer_1-2"><g><path class="cls-1" d="M93.55,92.34l13.03,8.18c.58,.37,.95,.68,1.12,.92,.17,.24,.26,.56,.26,.94,0,.73-.29,1.38-.88,1.97s-1.25,.88-1.99,.88c-.37,0-.91-.22-1.62-.67l-19.39-12.23,24.59-12.23c.89-.43,1.53-.64,1.91-.64,.55,0,1,.17,1.34,.52,.35,.35,.52,.79,.52,1.32,0,.59-.2,1.14-.6,1.65-.28,.34-.88,.74-1.8,1.2l-16.5,8.18Z"/><path class="cls-1" d="M138.26,77.09l-21.3,31.48c-.53,.8-1,1.33-1.41,1.6-.41,.27-.89,.4-1.43,.4-.52,0-.95-.17-1.3-.52s-.52-.79-.52-1.32c0-.47,.31-1.17,.93-2.09l21.34-31.46c.53-.8,.98-1.31,1.33-1.53,.46-.31,.95-.47,1.47-.47s.97,.17,1.32,.51c.35,.34,.52,.78,.52,1.31,0,.47-.32,1.17-.96,2.09Z"/><path class="cls-1" d="M157.78,92.34l-13.03-8.18c-.58-.37-.95-.68-1.12-.92-.17-.24-.26-.57-.26-.97,0-.71,.29-1.36,.88-1.93,.59-.58,1.24-.87,1.97-.87,.39,0,.93,.22,1.65,.64l19.39,12.23-24.59,12.23c-.89,.44-1.53,.67-1.91,.67-.55,0-1-.18-1.35-.53-.35-.36-.52-.82-.52-1.38s.21-1.12,.62-1.62c.27-.34,.85-.73,1.76-1.18l16.52-8.18Z"/></g></g></svg>